<?xml version="1.0" encoding="UTF-8" standalone="no"?>
<svg
   xmlns:dc="http://purl.org/dc/elements/1.1/"
   xmlns:cc="http://creativecommons.org/ns#"
   xmlns:rdf="http://www.w3.org/1999/02/22-rdf-syntax-ns#"
   xmlns:svg="http://www.w3.org/2000/svg"
   xmlns="http://www.w3.org/2000/svg"
   width="120"
   height="120"
   viewBox="0 0 31.749999 31.750001"
   version="1.1">
<path
    style="fill:currentColor;fill-opacity:1;fill-rule:evenodd;stroke-width:0.211703"
    d="m 20.896334,5.0789648 c -0.527813,0 -0.758736,0.4251489 -0.741143,0.9525914 l 0.529388,15.8765218 c 0.01759,0.527443 0.425087,0.952592 0.952899,0.952592 h 3.811599 c 0.527813,0 1.008892,-0.427833 0.952899,-0.952592 L 24.707933,6.0315562 c -0.05599,-0.5247588 -0.425087,-0.9525914 -0.9529,-0.9525914 z m -6.336947,1.9051826 c -0.527813,0 -0.935329,0.4251485 -0.952901,0.9525915 L 13.077512,23.813261 c -0.01757,0.527443 0.425087,0.952591 0.952899,0.952591 h 3.811185 c 0.527813,0 0.970491,-0.425149 0.9529,-0.952591 L 18.265107,7.9367389 C 18.247517,7.4092959 17.84002,6.9841474 17.312207,6.9841474 Z M 7.9949674,8.8893299 c -0.527813,0 -0.896907,0.427833 -0.9529,0.952592 L 5.3480234,25.718444 c -0.05599,0.524759 0.425087,0.952591 0.9529,0.952591 h 3.8115986 c 0.527813,0 0.935312,-0.425148 0.952899,-0.952591 L 11.59481,9.8419219 c 0.01759,-0.527443 -0.213331,-0.952592 -0.741144,-0.952592 z" />
</svg>
